<mxfile host="Electron" agent="Mozilla/5.0 (Windows NT 10.0; Win64; x64) AppleWebKit/537.36 (KHTML, like Gecko) draw.io/28.0.6 Chrome/138.0.7204.100 Electron/37.2.3 Safari/537.36" version="28.0.6">
  <diagram name="Página-1" id="qOiiJh23XRLZq0zANhFO">
    <mxGraphModel dx="1426" dy="841" grid="0" gridSize="10" guides="1" tooltips="1" connect="1" arrows="1" fold="1" page="1" pageScale="1" pageWidth="827" pageHeight="1169" math="0" shadow="0">
      <root>
        <mxCell id="0" />
        <mxCell id="1" parent="0" />
        <mxCell id="tdhkN_9E3uCMZR0hyI1w-8" value="Cargar Contenido a aulas MAA" style="shape=table;startSize=34;container=1;collapsible=0;childLayout=tableLayout;fixedRows=1;rowLines=0;fontStyle=0;fontSize=15;fontFamily=Times New Roman;" vertex="1" parent="1">
          <mxGeometry x="26" y="25" width="363" height="119.75" as="geometry" />
        </mxCell>
        <mxCell id="tdhkN_9E3uCMZR0hyI1w-9" value="" style="shape=tableRow;horizontal=0;startSize=0;swimlaneHead=0;swimlaneBody=0;top=0;left=0;bottom=0;right=0;collapsible=0;dropTarget=0;fillColor=none;points=[[0,0.5],[1,0.5]];portConstraint=eastwest;strokeColor=inherit;fontSize=16;fontFamily=Times New Roman;" vertex="1" parent="tdhkN_9E3uCMZR0hyI1w-8">
          <mxGeometry y="34" width="363" height="27" as="geometry" />
        </mxCell>
        <mxCell id="tdhkN_9E3uCMZR0hyI1w-10" value="&lt;font style=&quot;font-size: 14px;&quot;&gt;Detalle&lt;/font&gt;&lt;div&gt;&lt;br&gt;&lt;/div&gt;" style="shape=partialRectangle;html=1;whiteSpace=wrap;connectable=0;fillColor=none;top=0;left=0;bottom=0;right=0;overflow=hidden;pointerEvents=1;strokeColor=inherit;fontSize=16;fontFamily=Times New Roman;" vertex="1" parent="tdhkN_9E3uCMZR0hyI1w-9">
          <mxGeometry width="65" height="27" as="geometry">
            <mxRectangle width="65" height="27" as="alternateBounds" />
          </mxGeometry>
        </mxCell>
        <mxCell id="tdhkN_9E3uCMZR0hyI1w-11" value="&lt;font style=&quot;font-size: 15px;&quot;&gt;Ciclo 01-2025&lt;/font&gt;" style="shape=partialRectangle;html=1;whiteSpace=wrap;connectable=0;fillColor=none;top=0;left=0;bottom=0;right=0;align=left;spacingLeft=6;overflow=hidden;strokeColor=inherit;fontSize=16;fontFamily=Times New Roman;" vertex="1" parent="tdhkN_9E3uCMZR0hyI1w-9">
          <mxGeometry x="65" width="298" height="27" as="geometry">
            <mxRectangle width="298" height="27" as="alternateBounds" />
          </mxGeometry>
        </mxCell>
        <mxCell id="tdhkN_9E3uCMZR0hyI1w-12" value="" style="shape=tableRow;horizontal=0;startSize=0;swimlaneHead=0;swimlaneBody=0;top=0;left=0;bottom=0;right=0;collapsible=0;dropTarget=0;fillColor=none;points=[[0,0.5],[1,0.5]];portConstraint=eastwest;strokeColor=inherit;fontSize=16;fontFamily=Times New Roman;" vertex="1" parent="tdhkN_9E3uCMZR0hyI1w-8">
          <mxGeometry y="61" width="363" height="39" as="geometry" />
        </mxCell>
        <mxCell id="tdhkN_9E3uCMZR0hyI1w-13" value="&lt;font style=&quot;font-size: 14px;&quot;&gt;Encargado&lt;/font&gt;" style="shape=partialRectangle;html=1;whiteSpace=wrap;connectable=0;fillColor=none;top=0;left=0;bottom=0;right=0;overflow=hidden;strokeColor=inherit;fontSize=16;fontFamily=Times New Roman;" vertex="1" parent="tdhkN_9E3uCMZR0hyI1w-12">
          <mxGeometry width="65" height="39" as="geometry">
            <mxRectangle width="65" height="39" as="alternateBounds" />
          </mxGeometry>
        </mxCell>
        <mxCell id="tdhkN_9E3uCMZR0hyI1w-14" value="Juan Santos, Mauricio Chinchilla y René Cruz" style="shape=partialRectangle;html=1;whiteSpace=wrap;connectable=0;fillColor=none;top=0;left=0;bottom=0;right=0;align=left;spacingLeft=6;overflow=hidden;strokeColor=inherit;fontSize=16;fontFamily=Times New Roman;" vertex="1" parent="tdhkN_9E3uCMZR0hyI1w-12">
          <mxGeometry x="65" width="298" height="39" as="geometry">
            <mxRectangle width="298" height="39" as="alternateBounds" />
          </mxGeometry>
        </mxCell>
        <mxCell id="tdhkN_9E3uCMZR0hyI1w-15" value="" style="shape=tableRow;horizontal=0;startSize=0;swimlaneHead=0;swimlaneBody=0;top=0;left=0;bottom=0;right=0;collapsible=0;dropTarget=0;fillColor=none;points=[[0,0.5],[1,0.5]];portConstraint=eastwest;strokeColor=inherit;fontSize=16;fontFamily=Times New Roman;" vertex="1" parent="tdhkN_9E3uCMZR0hyI1w-8">
          <mxGeometry y="100" width="363" height="20" as="geometry" />
        </mxCell>
        <mxCell id="tdhkN_9E3uCMZR0hyI1w-16" value="" style="shape=partialRectangle;html=1;whiteSpace=wrap;connectable=0;fillColor=none;top=0;left=0;bottom=0;right=0;overflow=hidden;strokeColor=inherit;fontSize=16;fontFamily=Times New Roman;" vertex="1" parent="tdhkN_9E3uCMZR0hyI1w-15">
          <mxGeometry width="65" height="20" as="geometry">
            <mxRectangle width="65" height="20" as="alternateBounds" />
          </mxGeometry>
        </mxCell>
        <mxCell id="tdhkN_9E3uCMZR0hyI1w-17" value="" style="shape=partialRectangle;html=1;whiteSpace=wrap;connectable=0;fillColor=none;top=0;left=0;bottom=0;right=0;align=left;spacingLeft=6;overflow=hidden;strokeColor=inherit;fontSize=16;fontFamily=Times New Roman;" vertex="1" parent="tdhkN_9E3uCMZR0hyI1w-15">
          <mxGeometry x="65" width="298" height="20" as="geometry">
            <mxRectangle width="298" height="20" as="alternateBounds" />
          </mxGeometry>
        </mxCell>
        <mxCell id="tdhkN_9E3uCMZR0hyI1w-20" value="" style="edgeStyle=orthogonalEdgeStyle;rounded=0;orthogonalLoop=1;jettySize=auto;html=1;" edge="1" parent="1" source="tdhkN_9E3uCMZR0hyI1w-18" target="tdhkN_9E3uCMZR0hyI1w-19">
          <mxGeometry relative="1" as="geometry" />
        </mxCell>
        <mxCell id="tdhkN_9E3uCMZR0hyI1w-18" value="&lt;font style=&quot;font-size: 14px;&quot;&gt;Cargar contenido a aulas MAA&lt;/font&gt;" style="rounded=0;whiteSpace=wrap;html=1;fontFamily=Times New Roman;fillColor=#dae8fc;strokeColor=#6c8ebf;" vertex="1" parent="1">
          <mxGeometry x="354" y="241" width="120" height="60" as="geometry" />
        </mxCell>
        <mxCell id="tdhkN_9E3uCMZR0hyI1w-22" value="" style="edgeStyle=orthogonalEdgeStyle;rounded=0;orthogonalLoop=1;jettySize=auto;html=1;" edge="1" parent="1" source="tdhkN_9E3uCMZR0hyI1w-19" target="tdhkN_9E3uCMZR0hyI1w-21">
          <mxGeometry relative="1" as="geometry" />
        </mxCell>
        <mxCell id="tdhkN_9E3uCMZR0hyI1w-19" value="&lt;font style=&quot;font-size: 14px;&quot;&gt;El área técnica ingresa a la plataforma de Blackboard con credenciales de administrador&lt;/font&gt;" style="whiteSpace=wrap;html=1;fontFamily=Times New Roman;rounded=0;" vertex="1" parent="1">
          <mxGeometry x="324" y="342" width="180" height="70" as="geometry" />
        </mxCell>
        <mxCell id="tdhkN_9E3uCMZR0hyI1w-24" value="" style="edgeStyle=orthogonalEdgeStyle;rounded=0;orthogonalLoop=1;jettySize=auto;html=1;" edge="1" parent="1" source="tdhkN_9E3uCMZR0hyI1w-21" target="tdhkN_9E3uCMZR0hyI1w-23">
          <mxGeometry relative="1" as="geometry" />
        </mxCell>
        <mxCell id="tdhkN_9E3uCMZR0hyI1w-21" value="&lt;font style=&quot;font-size: 14px;&quot;&gt;Copiar contenido utilizando la ruta: Panel de administración/Cursos/Copiar Curso/Seleccionar tipo de copia: Copiar materiales de curso a un curso existente&lt;/font&gt;" style="whiteSpace=wrap;html=1;fontFamily=Times New Roman;rounded=0;" vertex="1" parent="1">
          <mxGeometry x="291" y="453" width="246" height="96" as="geometry" />
        </mxCell>
        <mxCell id="tdhkN_9E3uCMZR0hyI1w-26" value="" style="edgeStyle=orthogonalEdgeStyle;rounded=0;orthogonalLoop=1;jettySize=auto;html=1;" edge="1" parent="1" source="tdhkN_9E3uCMZR0hyI1w-23" target="tdhkN_9E3uCMZR0hyI1w-25">
          <mxGeometry relative="1" as="geometry" />
        </mxCell>
        <mxCell id="tdhkN_9E3uCMZR0hyI1w-23" value="&lt;font style=&quot;font-size: 14px;&quot;&gt;Ingresar ID del curso de origen e ID del curso de destino&lt;/font&gt;" style="whiteSpace=wrap;html=1;fontFamily=Times New Roman;rounded=0;" vertex="1" parent="1">
          <mxGeometry x="336.5" y="590.5" width="155" height="71.5" as="geometry" />
        </mxCell>
        <mxCell id="tdhkN_9E3uCMZR0hyI1w-28" value="" style="edgeStyle=orthogonalEdgeStyle;rounded=0;orthogonalLoop=1;jettySize=auto;html=1;" edge="1" parent="1" source="tdhkN_9E3uCMZR0hyI1w-25" target="tdhkN_9E3uCMZR0hyI1w-27">
          <mxGeometry relative="1" as="geometry" />
        </mxCell>
        <mxCell id="tdhkN_9E3uCMZR0hyI1w-25" value="&lt;font style=&quot;font-size: 14px;&quot;&gt;Presionar botón enviar datos&lt;/font&gt;" style="whiteSpace=wrap;html=1;fontFamily=Times New Roman;rounded=0;" vertex="1" parent="1">
          <mxGeometry x="354" y="704" width="120" height="60" as="geometry" />
        </mxCell>
        <mxCell id="tdhkN_9E3uCMZR0hyI1w-30" value="" style="edgeStyle=orthogonalEdgeStyle;rounded=0;orthogonalLoop=1;jettySize=auto;html=1;" edge="1" parent="1" source="tdhkN_9E3uCMZR0hyI1w-27" target="tdhkN_9E3uCMZR0hyI1w-29">
          <mxGeometry relative="1" as="geometry" />
        </mxCell>
        <mxCell id="tdhkN_9E3uCMZR0hyI1w-27" value="&lt;font style=&quot;font-size: 14px;&quot;&gt;Seleccionar datos necesarios en copia y finalizar&lt;/font&gt;" style="whiteSpace=wrap;html=1;fontFamily=Times New Roman;rounded=0;" vertex="1" parent="1">
          <mxGeometry x="348" y="806" width="132" height="60" as="geometry" />
        </mxCell>
        <mxCell id="tdhkN_9E3uCMZR0hyI1w-32" value="" style="edgeStyle=orthogonalEdgeStyle;rounded=0;orthogonalLoop=1;jettySize=auto;html=1;" edge="1" parent="1" source="tdhkN_9E3uCMZR0hyI1w-29" target="tdhkN_9E3uCMZR0hyI1w-31">
          <mxGeometry relative="1" as="geometry" />
        </mxCell>
        <mxCell id="tdhkN_9E3uCMZR0hyI1w-29" value="&lt;font style=&quot;font-size: 14px;&quot;&gt;Esperar proceso de copiado&lt;/font&gt;" style="whiteSpace=wrap;html=1;fontFamily=Times New Roman;rounded=0;" vertex="1" parent="1">
          <mxGeometry x="354" y="908" width="120" height="60" as="geometry" />
        </mxCell>
        <mxCell id="tdhkN_9E3uCMZR0hyI1w-31" value="&lt;font style=&quot;font-size: 14px;&quot;&gt;El área técnica verifica que el proceso haya sido exitoso en el aula virtual&lt;/font&gt;" style="whiteSpace=wrap;html=1;fontFamily=Times New Roman;rounded=0;" vertex="1" parent="1">
          <mxGeometry x="326" y="1014" width="176" height="73" as="geometry" />
        </mxCell>
      </root>
    </mxGraphModel>
  </diagram>
</mxfile>
